<svg width="114" height="114" viewBox="0 0 114 114" fill="none" xmlns="http://www.w3.org/2000/svg">
<path d="M111.433 51.2388L62.5373 2.32551C59.4377 -0.775171 54.4009 -0.775171 51.3013 2.32551L2.40538 51.2388C-0.694208 54.3395 -0.694208 59.3781 2.40538 62.4788L51.3013 111.392C54.4009 114.493 59.4377 114.493 62.5373 111.392L111.433 62.4788C114.455 59.3781 114.455 54.3395 111.433 51.2388ZM60.9875 96.7413C58.7403 98.9893 55.0209 98.9893 52.7737 96.7413L16.9735 60.9285C14.7263 58.6805 14.7263 54.9596 16.9735 52.7116L52.7737 16.8987C55.0209 14.6507 58.7403 14.6507 60.9875 16.8987L96.7878 52.7116C99.035 54.9596 99.035 58.6805 96.7878 60.9285L60.9875 96.7413Z" fill="#293B5F"/>
<path d="M81.7548 92.0128L78.4227 95.346C79.5851 94.1833 80.7475 93.098 81.7548 92.0128Z" fill="white"/>
<path d="M111.511 51.3163C104.692 44.4948 91.9834 31.8595 91.9834 31.8595C93.0682 32.9448 94.1531 34.03 95.3155 35.1928L91.9834 31.8595C65.4819 6.12386 55.0208 14.4182 53.1611 16.4336C53.0061 16.5111 52.8511 16.6662 52.7736 16.8212L16.896 52.7116C14.6488 54.9596 14.6488 58.6805 16.896 60.9285L52.7736 96.8189C55.0208 99.0669 58.7403 99.0669 60.9875 96.8189L96.8652 60.9285C98.9575 58.8355 99.1124 55.6573 97.4076 53.3317C99.6548 55.7348 106.551 66.4322 81.7548 91.9353L111.356 62.3238C114.378 59.3781 114.688 54.4945 111.511 51.3163ZM86.0942 59.8432L59.8252 86.1215C58.1979 87.7494 55.4858 87.7494 53.781 86.1215L27.512 59.8432C25.8847 58.2153 25.8847 55.5022 27.512 53.7969L53.781 27.5186C55.4083 25.8907 58.1204 25.8907 59.8252 27.5186L86.0942 53.7969C87.7989 55.5022 87.7989 58.2153 86.0942 59.8432Z" fill="white"/>
<path d="M38.5155 30.9293L40.9178 28.5263C40.0654 29.379 39.2904 30.1542 38.5155 30.9293Z" fill="#293B5F"/>
<path d="M30.999 75.0365C30.2241 74.2614 29.3718 73.4862 28.5969 72.6335L30.999 75.0365C52.6186 96.0437 59.7477 86.1215 59.7477 86.1215L59.8251 86.044C57.9654 87.7493 55.4083 87.6718 53.781 86.044L27.4345 59.6882C27.4345 59.6882 17.4383 52.5566 38.5155 30.9293L16.8184 52.6341C14.5712 54.8821 14.4162 58.4479 16.7409 60.7734" fill="#293B5F"/>
<path d="M32.0065 21.6273L35.3385 18.2941C34.0986 19.4568 33.0138 20.5421 32.0065 21.6273Z" fill="#F4CA8D"/>
<path d="M75.1682 82.6333C74.3933 83.4084 73.6184 84.2611 72.7661 85.0363L75.1682 82.6333C96.5554 61.161 86.2493 53.8744 86.2493 53.8744L86.1717 53.7969C87.8765 55.6573 87.799 58.2154 86.1717 59.8432L59.8252 86.199C59.8252 86.199 53.2387 95.3461 33.5563 77.4396L16.896 60.7734C16.896 60.7734 3.33536 51.0838 32.0065 21.6273L2.40542 51.2388C-0.616673 54.262 -0.926594 59.1456 2.25048 62.3238C9.06957 69.1453 51.1464 111.237 51.1464 111.237C51.1464 111.237 51.1464 111.237 51.1464 111.16L21.7004 81.703C20.6155 80.6178 19.5306 79.5326 18.3683 78.3698L21.7004 81.703C47.3494 106.664 58.043 99.6095 60.3677 97.3615C60.5227 97.2065 60.6777 97.0514 60.8326 96.8964C65.8695 91.9353 75.1682 82.6333 75.1682 82.6333Z" fill="#F4CA8D"/>
<path d="M21.7003 81.7805L18.3682 78.4473C19.5305 79.6101 20.6154 80.6953 21.7003 81.7805Z" fill="#0E1626"/>
<path d="M111.201 62.5563L81.7547 92.0128C80.6699 93.098 79.585 94.1832 78.4226 95.346L81.7547 92.0128C106.551 66.5096 99.7324 55.8123 97.4852 53.4093C97.3302 53.2542 97.1751 53.0217 97.0201 52.8666C93.3006 49.1458 87.2565 43.177 84.3894 40.2314C84.6219 40.4639 84.9318 40.774 85.1643 41.0065L82.7621 38.6035C61.1425 17.5963 54.0134 27.5185 54.0134 27.5185L53.9359 27.5961C55.7957 25.8907 58.3529 25.9682 59.9801 27.5961L86.3266 53.9519C86.3266 53.9519 95.2379 60.3858 78.2677 79.455L60.91 96.8188C60.91 96.8188 51.2238 110.384 21.7777 81.703L51.3788 111.315C54.4009 114.338 59.2827 114.648 62.4598 111.47C69.1239 104.726 111.278 62.5563 111.201 62.5563Z" fill="#0E1626"/>
<path d="M82.6846 38.6035C82.6846 38.6035 83.3046 39.2237 84.3119 40.2314C83.7695 39.6888 83.227 39.1461 82.6846 38.6035Z" fill="#0E1626"/>
</svg>
