<svg width="14" height="14" viewBox="0 0 14 14" fill="none" xmlns="http://www.w3.org/2000/svg">
<path d="M11.8886 0.997017H10.9371V0.608446C10.9371 0.282732 10.6686 0.0141602 10.3429 0.0141602C10.0171 0.0141602 9.74857 0.282732 9.74857 0.608446V0.99416H4.22V0.608446C4.22 0.282732 3.95143 0.0141602 3.62571 0.0141602C3.3 0.0141602 3.03143 0.282732 3.03143 0.608446V0.99416H2.11143C0.951429 0.997017 0 1.94559 0 3.10559V11.8742C0 13.0342 0.951429 13.9856 2.11143 13.9856H11.86C13.02 13.9856 13.9714 13.0342 14 11.9056V3.10559C14 1.94559 13.0486 0.997017 11.8886 0.997017ZM12.8114 11.8742C12.8114 12.3799 12.3943 12.797 11.8886 12.797H2.11143C1.60571 12.797 1.18857 12.3799 1.18857 11.8742V3.07702C1.18857 2.5713 1.60571 2.15416 2.11143 2.15416H3.03429V2.53987C3.03429 2.86559 3.30286 3.13416 3.62857 3.13416C3.95429 3.13416 4.22286 2.89702 4.22286 2.56845V2.18559H9.75143V2.54273C9.75143 2.86845 10.02 3.13702 10.3457 3.13702C10.6429 3.13702 10.9114 2.89987 10.94 2.5713V2.18559H11.8914C12.3971 2.18559 12.8143 2.60273 12.8143 3.10845V11.8742H12.8114Z" fill="white"/>
<path d="M3.68577 5.27686H2.97148C2.64577 5.27686 2.3772 5.54543 2.3772 5.87114C2.3772 6.19686 2.64577 6.46543 2.97148 6.46543H3.68577C3.98291 6.46543 4.25148 6.19686 4.28005 5.87114C4.28005 5.54257 4.01148 5.27686 3.68577 5.27686Z" fill="white"/>
<path d="M11.0285 5.27686H10.3143C9.98854 5.27686 9.71997 5.54543 9.71997 5.87114C9.71997 6.19686 9.98854 6.46543 10.3143 6.46543H11.0285C11.3257 6.46543 11.5943 6.19686 11.6228 5.87114C11.6228 5.54257 11.3543 5.27686 11.0285 5.27686Z" fill="white"/>
<path d="M7.34287 5.27686H6.62859C6.30287 5.27686 6.0343 5.54543 6.0343 5.87114C6.0343 6.19686 6.30287 6.46543 6.62859 6.46543H7.34287C7.66859 6.46543 7.93716 6.19686 7.93716 5.87114C7.93716 5.54257 7.66859 5.27686 7.34287 5.27686Z" fill="white"/>
<path d="M3.68577 7.74268H2.97148C2.64577 7.74268 2.3772 8.01125 2.3772 8.33696C2.3772 8.66267 2.64577 8.93125 2.97148 8.93125H3.68577C3.98291 8.93125 4.25148 8.6941 4.28005 8.33696C4.28005 8.01125 4.01148 7.74268 3.68577 7.74268Z" fill="white"/>
<path d="M11.0285 7.74268H10.3143C9.98854 7.74268 9.71997 8.01125 9.71997 8.33696C9.71997 8.66267 9.98854 8.93125 10.3143 8.93125H11.0285C11.3257 8.93125 11.5943 8.6941 11.6228 8.33696C11.6228 8.01125 11.3543 7.74268 11.0285 7.74268Z" fill="white"/>
<path d="M7.34287 7.74268H6.62859C6.30287 7.74268 6.0343 8.01125 6.0343 8.33696C6.0343 8.66267 6.30287 8.93125 6.62859 8.93125H7.34287C7.66859 8.93125 7.93716 8.6941 7.93716 8.33696C7.93716 8.01125 7.66859 7.74268 7.34287 7.74268Z" fill="white"/>
<path d="M3.68577 10.2397H2.97148C2.64577 10.2397 2.3772 10.5083 2.3772 10.834C2.3772 11.1597 2.64577 11.4283 2.97148 11.4283H3.68577C3.98291 11.4283 4.25148 11.1597 4.28005 10.834C4.28005 10.5083 4.01148 10.2397 3.68577 10.2397Z" fill="white"/>
<path d="M11.0285 10.2397H10.3143C9.98854 10.2397 9.71997 10.5083 9.71997 10.834C9.71997 11.1597 9.98854 11.4283 10.3143 11.4283H11.0285C11.3257 11.4283 11.5943 11.1597 11.6228 10.834C11.6228 10.5083 11.3543 10.2397 11.0285 10.2397Z" fill="white"/>
<path d="M7.34287 10.2397H6.62859C6.30287 10.2397 6.0343 10.5083 6.0343 10.834C6.0343 11.1597 6.30287 11.4283 6.62859 11.4283H7.34287C7.66859 11.4283 7.93716 11.1597 7.93716 10.834C7.93716 10.5083 7.66859 10.2397 7.34287 10.2397Z" fill="white"/>
</svg>
