<svg width="17" height="16" viewBox="0 0 17 16" fill="none" xmlns="http://www.w3.org/2000/svg">
<path d="M8.05143 15.2066C7.59143 15.2066 7.1581 14.9733 6.85143 14.5666L5.85143 13.2333C5.83143 13.2066 5.75143 13.1733 5.7181 13.1666H5.38477C2.60477 13.1666 0.884766 12.4133 0.884766 8.66665V5.33331C0.884766 2.38665 2.4381 0.833313 5.38477 0.833313H10.7181C13.6648 0.833313 15.2181 2.38665 15.2181 5.33331V8.66665C15.2181 11.6133 13.6648 13.1666 10.7181 13.1666H10.3848C10.3314 13.1666 10.2848 13.1933 10.2514 13.2333L9.25143 14.5666C8.94477 14.9733 8.51143 15.2066 8.05143 15.2066ZM5.38477 1.83331C2.9981 1.83331 1.88477 2.94665 1.88477 5.33331V8.66665C1.88477 11.68 2.9181 12.1666 5.38477 12.1666H5.7181C6.0581 12.1666 6.44477 12.36 6.65143 12.6333L7.65143 13.9666C7.88477 14.2733 8.2181 14.2733 8.45143 13.9666L9.45143 12.6333C9.67143 12.34 10.0181 12.1666 10.3848 12.1666H10.7181C13.1048 12.1666 14.2181 11.0533 14.2181 8.66665V5.33331C14.2181 2.94665 13.1048 1.83331 10.7181 1.83331H5.38477Z" fill="#787486"/>
<path d="M8.05143 8.00002C7.6781 8.00002 7.38477 7.70002 7.38477 7.33335C7.38477 6.96669 7.68477 6.66669 8.05143 6.66669C8.4181 6.66669 8.7181 6.96669 8.7181 7.33335C8.7181 7.70002 8.42477 8.00002 8.05143 8.00002Z" fill="#787486"/>
<path d="M10.7184 8.00002C10.3451 8.00002 10.0518 7.70002 10.0518 7.33335C10.0518 6.96669 10.3518 6.66669 10.7184 6.66669C11.0851 6.66669 11.3851 6.96669 11.3851 7.33335C11.3851 7.70002 11.0918 8.00002 10.7184 8.00002Z" fill="#787486"/>
<path d="M5.38542 8.00002C5.01208 8.00002 4.71875 7.70002 4.71875 7.33335C4.71875 6.96669 5.01875 6.66669 5.38542 6.66669C5.75208 6.66669 6.05208 6.96669 6.05208 7.33335C6.05208 7.70002 5.75875 8.00002 5.38542 8.00002Z" fill="#787486"/>
</svg>
