<svg width="25" height="24" viewBox="0 0 25 24" fill="none" xmlns="http://www.w3.org/2000/svg">
<g filter="url(#filter0_d_167_2045)">
<path d="M18.3851 7.33331V11.3333C18.3851 14 17.7184 14.6666 15.0518 14.6666H8.38509C5.71842 14.6666 5.05176 14 5.05176 11.3333V4.66665C5.05176 1.99998 5.71842 1.33331 8.38509 1.33331H9.38509C10.3851 1.33331 10.6051 1.62665 10.9851 2.13331L11.9851 3.46665C12.2384 3.79998 12.3851 3.99998 13.0518 3.99998H15.0518C17.7184 3.99998 18.3851 4.66665 18.3851 7.33331Z" stroke="#787486" stroke-miterlimit="10"/>
<path d="M9.38477 1.33331H15.3848C16.7181 1.33331 17.3848 1.99998 17.3848 3.33331V4.25331" stroke="#787486" stroke-miterlimit="10" stroke-linecap="round" stroke-linejoin="round"/>
<path d="M13.3851 10H10.0518" stroke="#787486" stroke-miterlimit="10" stroke-linecap="round" stroke-linejoin="round"/>
</g>
<defs>
<filter id="filter0_d_167_2045" x="0.0517578" y="0" width="24" height="24" filterUnits="userSpaceOnUse" color-interpolation-filters="sRGB">
<feFlood flood-opacity="0" result="BackgroundImageFix"/>
<feColorMatrix in="SourceAlpha" type="matrix" values="0 0 0 0 0 0 0 0 0 0 0 0 0 0 0 0 0 0 127 0" result="hardAlpha"/>
<feOffset dy="4"/>
<feGaussianBlur stdDeviation="2"/>
<feComposite in2="hardAlpha" operator="out"/>
<feColorMatrix type="matrix" values="0 0 0 0 0 0 0 0 0 0 0 0 0 0 0 0 0 0 0.25 0"/>
<feBlend mode="normal" in2="BackgroundImageFix" result="effect1_dropShadow_167_2045"/>
<feBlend mode="normal" in="SourceGraphic" in2="effect1_dropShadow_167_2045" result="shape"/>
</filter>
</defs>
</svg>
