<svg width="25" height="24" viewBox="0 0 25 24" fill="none" xmlns="http://www.w3.org/2000/svg">
<path opacity="0.5" fill-rule="evenodd" clip-rule="evenodd" d="M5.05176 8C5.05176 7.20435 5.36783 6.44129 5.93044 5.87868C6.49305 5.31607 7.25611 5 8.05176 5H18.0518C18.2375 5 18.4195 5.05171 18.5775 5.14935C18.7355 5.24698 18.8631 5.38668 18.9462 5.55279C19.0292 5.71889 19.0644 5.90484 19.0477 6.08981C19.031 6.27477 18.9632 6.45143 18.8518 6.6L16.3018 10L18.8518 13.4C18.9632 13.5486 19.031 13.7252 19.0477 13.9102C19.0644 14.0952 19.0292 14.2811 18.9462 14.4472C18.8631 14.6133 18.7355 14.753 18.5775 14.8507C18.4195 14.9483 18.2375 15 18.0518 15H8.05176C7.78654 15 7.53219 15.1054 7.34465 15.2929C7.15711 15.4804 7.05176 15.7348 7.05176 16V19C7.05176 19.2652 6.9464 19.5196 6.75886 19.7071C6.57133 19.8946 6.31697 20 6.05176 20C5.78654 20 5.53219 19.8946 5.34465 19.7071C5.15711 19.5196 5.05176 19.2652 5.05176 19V8Z" fill="#6E7C87"/>
</svg>
