<svg width="17" height="16" viewBox="0 0 17 16" fill="none" xmlns="http://www.w3.org/2000/svg">
<g id="more-horizontal">
<path id="Vector" d="M12.7184 8.66668C13.0866 8.66668 13.3851 8.3682 13.3851 8.00001C13.3851 7.63182 13.0866 7.33334 12.7184 7.33334C12.3502 7.33334 12.0518 7.63182 12.0518 8.00001C12.0518 8.3682 12.3502 8.66668 12.7184 8.66668Z" stroke="#6F6F6F" stroke-width="1.33333" stroke-linecap="round" stroke-linejoin="round"/>
<path id="Vector_2" d="M8.05143 8.66668C8.41962 8.66668 8.7181 8.3682 8.7181 8.00001C8.7181 7.63182 8.41962 7.33334 8.05143 7.33334C7.68324 7.33334 7.38477 7.63182 7.38477 8.00001C7.38477 8.3682 7.68324 8.66668 8.05143 8.66668Z" stroke="#6F6F6F" stroke-width="1.33333" stroke-linecap="round" stroke-linejoin="round"/>
<path id="Vector_3" d="M3.38542 8.66668C3.75361 8.66668 4.05208 8.3682 4.05208 8.00001C4.05208 7.63182 3.75361 7.33334 3.38542 7.33334C3.01723 7.33334 2.71875 7.63182 2.71875 8.00001C2.71875 8.3682 3.01723 8.66668 3.38542 8.66668Z" stroke="#6F6F6F" stroke-width="1.33333" stroke-linecap="round" stroke-linejoin="round"/>
</g>
</svg>
