<svg width="16" height="18" viewBox="0 0 16 18" fill="none" xmlns="http://www.w3.org/2000/svg">
<path d="M15.4788 11.9499C15.5346 12.0456 15.5711 12.1513 15.586 12.2611C15.601 12.3709 15.5942 12.4826 15.566 12.5897C15.5378 12.6969 15.4887 12.7974 15.4217 12.8856C15.3546 12.9738 15.2708 13.048 15.1751 13.1038L8.42514 17.0413C8.2961 17.1166 8.14939 17.1562 8 17.1562C7.85061 17.1562 7.7039 17.1166 7.57486 17.0413L0.824863 13.1038C0.63172 12.991 0.491283 12.8061 0.434424 12.5897C0.377565 12.3734 0.408937 12.1433 0.521645 11.9501C0.634353 11.7569 0.819171 11.6164 1.03547 11.5594C1.25177 11.5024 1.48185 11.5336 1.67514 11.6462L8 15.3357L14.3249 11.6462C14.5182 11.5335 14.7483 11.5021 14.9647 11.5591C15.1811 11.616 15.366 11.7566 15.4788 11.9499ZM14.3249 8.27119L8 11.9607L1.67514 8.27119C1.48185 8.15861 1.25177 8.12737 1.03547 8.18437C0.819171 8.24136 0.634353 8.38191 0.521645 8.57512C0.408937 8.76834 0.377565 8.9984 0.434424 9.21473C0.491283 9.43107 0.63172 9.61598 0.824863 9.7288L7.57486 13.6663C7.7039 13.7416 7.85061 13.7812 8 13.7812C8.14939 13.7812 8.2961 13.7416 8.42514 13.6663L15.1751 9.7288C15.2709 9.67301 15.3548 9.59889 15.4219 9.51068C15.489 9.42247 15.5381 9.3219 15.5663 9.21471C15.5946 9.10753 15.6014 8.99582 15.5865 8.88599C15.5715 8.77616 15.5351 8.67034 15.4793 8.5746C15.4234 8.47885 15.3492 8.39505 15.261 8.32798C15.1727 8.26091 15.0721 8.21188 14.9649 8.18371C14.8577 8.15553 14.746 8.14876 14.6362 8.16377C14.5264 8.17878 14.4206 8.21528 14.3249 8.27119ZM0.40625 5.625C0.406243 5.47753 0.444891 5.33263 0.518341 5.20476C0.591791 5.07688 0.697477 4.97049 0.824863 4.89619L7.57486 0.958695C7.7039 0.883417 7.85061 0.84375 8 0.84375C8.14939 0.84375 8.2961 0.883417 8.42514 0.958695L15.1751 4.89619C15.3025 4.9705 15.4082 5.07689 15.4816 5.20476C15.5551 5.33264 15.5938 5.47753 15.5938 5.625C15.5938 5.77247 15.5551 5.91736 15.4816 6.04524C15.4082 6.17311 15.3025 6.2795 15.1751 6.3538L8.42514 10.2913C8.2961 10.3666 8.14939 10.4062 8 10.4062C7.85061 10.4062 7.7039 10.3666 7.57486 10.2913L0.824863 6.3538C0.697477 6.27951 0.591791 6.17312 0.518341 6.04524C0.444891 5.91736 0.406243 5.77247 0.40625 5.625ZM2.92452 5.625L8 8.58568L13.0755 5.625L8 2.66432L2.92452 5.625Z" fill="#fff"/>
</svg>
