<svg width="24" height="24" viewBox="0 0 13 11" fill="#fff" xmlns="http://www.w3.org/2000/svg">
<path d="M12.0774 0.222168H0.922689C0.689009 0.222168 0.5 0.411275 0.5 0.644856V2.35495C0.5 2.58853 0.689009 2.77769 0.922689 2.77769H12.0774C12.311 2.77769 12.5 2.58853 12.5 2.35495V0.644856C12.5 0.411275 12.311 0.222168 12.0774 0.222168Z" fill="#fff"/>
<path d="M12.0774 4.22217H0.922689C0.689009 4.22217 0.5 4.41123 0.5 4.64481V6.35495C0.5 6.58858 0.689009 6.77764 0.922689 6.77764H12.0774C12.311 6.77764 12.5 6.58858 12.5 6.35495V4.64481C12.5 4.41123 12.311 4.22217 12.0774 4.22217Z" fill="#fff"/>
<path d="M6.0773 8.22217H0.922689C0.689009 8.22217 0.5 8.41125 0.5 8.64481V10.3549C0.5 10.5886 0.689009 10.7776 0.922689 10.7776H6.0773C6.31098 10.7776 6.49999 10.5886 6.49999 10.3549V8.64481C6.50001 8.41125 6.311 8.22217 6.0773 8.22217Z" fill="#fff"/>
</svg>
