<svg width="32" height="31" viewBox="0 0 32 31" fill="none" xmlns="http://www.w3.org/2000/svg">
<g clip-path="url(#clip0_100_6881)">
<g clip-path="url(#clip1_100_6881)">
<path fill-rule="evenodd" clip-rule="evenodd" d="M26.9102 24.4583C26.9102 25.6826 26.0555 26.7072 24.9106 26.9673V27.0257H24.5082C24.4521 27.0294 24.3956 27.0312 24.3385 27.0312H19.5167C19.4882 27.0312 19.4599 27.0294 19.4322 27.0257H14.7795C14.7519 27.0294 14.7236 27.0312 14.695 27.0312H6.33725C4.91697 27.0312 3.76562 25.8793 3.76562 24.4583V6.44792C3.76562 5.02693 4.91697 3.875 6.33725 3.875H24.3385C25.7588 3.875 26.9102 5.02693 26.9102 6.44792V24.4583ZM20.4504 10.4283C20.5576 10.4983 20.6682 10.5628 20.782 10.6217C21.5217 10.9915 22.2444 11.104 22.6002 11.0653V13.9442C22.6002 13.9442 21.5846 13.902 20.8307 13.7015C19.7801 13.4197 19.1066 12.987 19.1066 12.987C19.1066 12.987 18.6391 12.6771 18.6041 12.656V18.605C18.6041 18.9357 18.5167 19.7631 18.2549 20.4529C18.0254 21.0427 17.6974 21.5891 17.2848 22.0686C17.2848 22.0686 16.6391 22.871 15.5049 23.4095C14.5595 23.8585 13.7185 23.8832 13.3845 23.893C13.3572 23.8937 13.3333 23.8945 13.313 23.8953C13.313 23.8953 11.7601 23.958 10.3595 23.0039L10.3525 22.9968V23.0039C9.87895 22.6728 9.45669 22.2734 9.09927 21.8188C8.65604 21.2521 8.38408 20.5799 8.31389 20.3829V20.3758C8.20228 20.0413 7.96821 19.2319 8.0033 18.4506C8.05909 17.0742 8.51989 16.2261 8.64201 16.0151C8.96294 15.4363 9.38216 14.9181 9.88082 14.4838C10.4499 14.0056 11.1117 13.6508 11.8244 13.4418C12.5372 13.2328 13.2854 13.1741 14.0219 13.2695L14.0184 16.2222C13.7758 16.143 13.5222 16.1027 13.267 16.1029C11.9191 16.1029 10.8266 17.2047 10.8266 18.5653C10.8266 19.926 11.9191 21.0278 13.267 21.0278C13.6867 21.0282 14.0993 20.9191 14.4641 20.7111C14.8141 20.5118 15.1098 20.2293 15.3254 19.8885C15.5409 19.5478 15.6695 19.1591 15.7001 18.7568V18.7504C15.7018 18.7419 15.7018 18.7334 15.7018 18.7254C15.7022 18.7189 15.7026 18.7129 15.703 18.7069C15.7038 18.6945 15.7046 18.6828 15.7046 18.6705C15.7109 18.5235 15.7109 18.3747 15.7109 18.2242V7.01053H18.6041C18.5994 7.01053 18.5693 7.28842 18.6423 7.71792H18.6388C18.7261 8.23537 18.9634 8.97442 19.5987 9.70293C19.8525 9.97808 20.1384 10.2216 20.4504 10.4283Z" fill="#787486"/>
</g>
</g>
<defs>
<clipPath id="clip0_100_6881">
<rect width="30.8906" height="30.8906" fill="white" transform="translate(0.671875)"/>
</clipPath>
<clipPath id="clip1_100_6881">
<rect width="30.875" height="30.875" fill="white" transform="translate(0.671875 0.015625)"/>
</clipPath>
</defs>
</svg>
