<svg width="32" height="30" viewBox="0 0 32 30" fill="none" xmlns="http://www.w3.org/2000/svg">
<g clip-path="url(#clip0_100_6872)">
<g clip-path="url(#clip1_100_6872)">
<path d="M8.05729 4C6.03835 4 4.39062 5.64773 4.39062 7.66667V22.3333C4.39062 24.3523 6.03835 26 8.05729 26H22.724C24.7429 26 26.3906 24.3523 26.3906 22.3333V7.66667C26.3906 5.64773 24.7429 4 22.724 4H8.05729ZM8.05729 5.04762H22.724C24.1768 5.04762 25.343 6.21379 25.343 7.66667V22.3333C25.343 23.7862 24.1768 24.9524 22.724 24.9524H8.05729C6.60442 24.9524 5.43824 23.7862 5.43824 22.3333V7.66667C5.43824 6.21379 6.60442 5.04762 8.05729 5.04762ZM9.14993 8.71429L13.9808 15.578L9.10491 21.2857H10.4144L14.5722 16.418L17.9974 21.2857H22.1551L16.8516 13.7498L21.1525 8.71429H19.843L16.2602 12.9099L13.3077 8.71429H9.14993ZM11.1551 9.76191H12.7603L20.1499 20.2381H18.5447L11.1551 9.76191Z" fill="#787486"/>
</g>
</g>
<defs>
<clipPath id="clip0_100_6872">
<rect width="30.8906" height="29.4062" fill="white" transform="translate(0.890625)"/>
</clipPath>
<clipPath id="clip1_100_6872">
<rect width="30.875" height="29.375" fill="white" transform="translate(0.890625)"/>
</clipPath>
</defs>
</svg>
