<svg width="32" height="30" viewBox="0 0 32 30" fill="none" xmlns="http://www.w3.org/2000/svg">
<g clip-path="url(#clip0_100_6877)">
<g clip-path="url(#clip1_100_6877)">
<path fill-rule="evenodd" clip-rule="evenodd" d="M23.8908 5.31199L25.6779 5.49558C27.7935 5.73471 29.3822 7.54048 29.3499 9.66929V19.7058C29.3822 21.8346 27.7935 23.6403 25.6779 23.8795L23.9643 24.0631C18.6174 24.6137 13.228 24.6137 7.88109 24.0631L6.09407 23.8795C3.97841 23.6403 2.38973 21.8346 2.4221 19.7058V9.66929C2.38973 7.54048 3.97841 5.73471 6.09407 5.49558L7.80765 5.31199C13.1546 4.76124 18.544 4.76124 23.8908 5.31199ZM14.7966 18.6286L19.5579 15.4464H19.6313C19.8879 15.2793 20.0427 14.9937 20.0427 14.6875C20.0427 14.3813 19.8879 14.0958 19.6313 13.9286L14.8701 10.7463C14.589 10.5563 14.226 10.5369 13.9261 10.6958C13.6263 10.8546 13.4386 11.1659 13.438 11.5052V17.8698C13.4538 18.1856 13.6311 18.4711 13.9072 18.6254C14.1833 18.7796 14.5194 18.7809 14.7966 18.6286Z" fill="#787486"/>
</g>
</g>
<defs>
<clipPath id="clip0_100_6877">
<rect width="30.8906" height="29.4062" fill="white" transform="translate(0.78125)"/>
</clipPath>
<clipPath id="clip1_100_6877">
<rect width="30.875" height="29.375" fill="white" transform="translate(0.78125)"/>
</clipPath>
</defs>
</svg>
